<svg width="580" height="190" viewBox="0 0 580 190" fill="none" xmlns="http://www.w3.org/2000/svg" role="img" aria-labelledby="title desc">
  <title id="title">Workshop Projeto Você S.A.</title>
  <desc id="desc">Landing page de workshop construída com Next.js, React e TypeScript</desc>
  <defs>
    <linearGradient id="border" x1="0" y1="0" x2="580" y2="190"><stop stop-color="#7C3AED"/><stop offset="1" stop-color="#E879F9"/></linearGradient>
    <linearGradient id="icon" x1="24" y1="24" x2="84" y2="84"><stop stop-color="#A855F7"/><stop offset="1" stop-color="#E879F9"/></linearGradient>
    <style>.sans{font-family:Inter,Segoe UI,Arial,sans-serif}.mono{font-family:'JetBrains Mono',Consolas,monospace}</style>
  </defs>
  <rect x="1" y="1" width="578" height="188" rx="16" fill="#0D1117" stroke="url(#border)" stroke-opacity=".72" stroke-width="2"/>
  <rect x="24" y="24" width="58" height="58" rx="14" fill="url(#icon)" fill-opacity=".14" stroke="url(#icon)"/>
  <path d="M39 62L50 51L58 58L68 43" stroke="#E879F9" stroke-width="3" stroke-linecap="round" stroke-linejoin="round"/><path d="M61 43H68V50" stroke="#E879F9" stroke-width="3" stroke-linecap="round" stroke-linejoin="round"/>
  <text class="mono" x="104" y="43" fill="#C084FC" font-size="12" letter-spacing="2">FEATURED / 05</text>
  <text class="sans" x="104" y="70" fill="#F0F6FC" font-size="21" font-weight="700">Projeto Você S.A.</text>
  <text class="sans" x="24" y="111" fill="#9DA7B3" font-size="14">Experiência de vendas completa para workshop,</text>
  <text class="sans" x="24" y="132" fill="#9DA7B3" font-size="14">com múltiplas rotas e comunicação estratégica.</text>
  <rect x="24" y="151" width="70" height="24" rx="12" fill="#161B22"/><text class="mono" x="59" y="167" text-anchor="middle" fill="#C9D1D9" font-size="10">NEXT.JS</text>
  <rect x="102" y="151" width="83" height="24" rx="12" fill="#161B22"/><text class="mono" x="143.5" y="167" text-anchor="middle" fill="#C9D1D9" font-size="10">TYPESCRIPT</text>
  <rect x="193" y="151" width="77" height="24" rx="12" fill="#161B22"/><text class="mono" x="231.5" y="167" text-anchor="middle" fill="#C9D1D9" font-size="10">CLOUDFLARE</text>
  <text class="mono" x="548" y="167" text-anchor="end" fill="#E879F9" font-size="12">OPEN ↗</text>
</svg>
